<svg width="149" height="45" viewBox="0 0 149 45" fill="none" xmlns="http://www.w3.org/2000/svg">
<path d="M59.723 32C59.543 32 59.381 31.937 59.237 31.811C59.111 31.667 59.048 31.505 59.048 31.325V17.339H54.242C54.062 17.339 53.9 17.276 53.756 17.15C53.63 17.006 53.567 16.844 53.567 16.664V13.775C53.567 13.577 53.63 13.415 53.756 13.289C53.9 13.163 54.062 13.1 54.242 13.1H68.768C68.966 13.1 69.128 13.163 69.254 13.289C69.38 13.415 69.443 13.577 69.443 13.775V16.664C69.443 16.862 69.38 17.024 69.254 17.15C69.128 17.276 68.966 17.339 68.768 17.339H63.962V31.325C63.962 31.505 63.899 31.667 63.773 31.811C63.647 31.937 63.485 32 63.287 32H59.723ZM73.4388 32.27C72.4848 32.27 71.6118 32.09 70.8198 31.73C70.0458 31.352 69.4338 30.848 68.9838 30.218C68.5518 29.57 68.3358 28.859 68.3358 28.085C68.3358 26.843 68.8398 25.844 69.8478 25.088C70.8738 24.332 72.2778 23.81 74.0598 23.522L77.4348 23.009V22.631C77.4348 21.947 77.2908 21.443 77.0028 21.119C76.7148 20.795 76.2288 20.633 75.5448 20.633C75.1308 20.633 74.7888 20.705 74.5188 20.849C74.2488 20.993 73.9698 21.191 73.6818 21.443C73.4298 21.659 73.2408 21.803 73.1148 21.875C73.0608 22.019 72.9618 22.091 72.8178 22.091H69.8748C69.6948 22.091 69.5418 22.037 69.4158 21.929C69.3078 21.803 69.2628 21.659 69.2808 21.497C69.2988 21.011 69.5328 20.471 69.9828 19.877C70.4508 19.283 71.1528 18.77 72.0888 18.338C73.0428 17.906 74.2128 17.69 75.5988 17.69C77.8128 17.69 79.4508 18.185 80.5128 19.175C81.5748 20.147 82.1058 21.461 82.1058 23.117V31.325C82.1058 31.505 82.0428 31.667 81.9168 31.811C81.7908 31.937 81.6288 32 81.4308 32H78.2988C78.1188 32 77.9568 31.937 77.8128 31.811C77.6868 31.667 77.6238 31.505 77.6238 31.325V30.38C77.2278 30.938 76.6698 31.397 75.9498 31.757C75.2478 32.099 74.4108 32.27 73.4388 32.27ZM74.7078 29.192C75.5358 29.192 76.2018 28.922 76.7058 28.382C77.2278 27.842 77.4888 27.05 77.4888 26.006V25.628L75.1938 26.033C73.5738 26.321 72.7638 26.888 72.7638 27.734C72.7638 28.184 72.9528 28.544 73.3308 28.814C73.7088 29.066 74.1678 29.192 74.7078 29.192ZM85.8276 32C85.6296 32 85.4676 31.937 85.3416 31.811C85.2156 31.685 85.1526 31.523 85.1526 31.325V18.635C85.1526 18.437 85.2156 18.275 85.3416 18.149C85.4676 18.023 85.6296 17.96 85.8276 17.96H88.9326C89.1306 17.96 89.2926 18.032 89.4186 18.176C89.5626 18.302 89.6346 18.455 89.6346 18.635V19.715C90.6246 18.545 91.9566 17.96 93.6306 17.96H94.8186C95.0166 17.96 95.1786 18.023 95.3046 18.149C95.4306 18.275 95.4936 18.437 95.4936 18.635V21.416C95.4936 21.596 95.4306 21.758 95.3046 21.902C95.1786 22.028 95.0166 22.091 94.8186 22.091H92.1996C91.4616 22.091 90.8856 22.298 90.4716 22.712C90.0756 23.108 89.8776 23.675 89.8776 24.413V31.325C89.8776 31.523 89.8056 31.685 89.6616 31.811C89.5356 31.937 89.3736 32 89.1756 32H85.8276ZM101.388 32.27C100.434 32.27 99.561 32.09 98.769 31.73C97.995 31.352 97.383 30.848 96.933 30.218C96.501 29.57 96.285 28.859 96.285 28.085C96.285 26.843 96.789 25.844 97.797 25.088C98.823 24.332 100.227 23.81 102.009 23.522L105.384 23.009V22.631C105.384 21.947 105.24 21.443 104.952 21.119C104.664 20.795 104.178 20.633 103.494 20.633C103.08 20.633 102.738 20.705 102.468 20.849C102.198 20.993 101.919 21.191 101.631 21.443C101.379 21.659 101.19 21.803 101.064 21.875C101.01 22.019 100.911 22.091 100.767 22.091H97.824C97.644 22.091 97.491 22.037 97.365 21.929C97.257 21.803 97.212 21.659 97.23 21.497C97.248 21.011 97.482 20.471 97.932 19.877C98.4 19.283 99.102 18.77 100.038 18.338C100.992 17.906 102.162 17.69 103.548 17.69C105.762 17.69 107.4 18.185 108.462 19.175C109.524 20.147 110.055 21.461 110.055 23.117V31.325C110.055 31.505 109.992 31.667 109.866 31.811C109.74 31.937 109.578 32 109.38 32H106.248C106.068 32 105.906 31.937 105.762 31.811C105.636 31.667 105.573 31.505 105.573 31.325V30.38C105.177 30.938 104.619 31.397 103.899 31.757C103.197 32.099 102.36 32.27 101.388 32.27ZM102.657 29.192C103.485 29.192 104.151 28.922 104.655 28.382C105.177 27.842 105.438 27.05 105.438 26.006V25.628L103.143 26.033C101.523 26.321 100.713 26.888 100.713 27.734C100.713 28.184 100.902 28.544 101.28 28.814C101.658 29.066 102.117 29.192 102.657 29.192ZM113.777 37.13C113.597 37.13 113.435 37.067 113.291 36.941C113.165 36.815 113.102 36.653 113.102 36.455V18.635C113.102 18.437 113.165 18.275 113.291 18.149C113.435 18.023 113.597 17.96 113.777 17.96H116.828C117.026 17.96 117.188 18.023 117.314 18.149C117.44 18.275 117.503 18.437 117.503 18.635V19.607C118.475 18.329 119.87 17.69 121.688 17.69C123.452 17.69 124.829 18.239 125.819 19.337C126.809 20.435 127.349 21.983 127.439 23.981C127.457 24.215 127.466 24.548 127.466 24.98C127.466 25.412 127.457 25.745 127.439 25.979C127.367 27.923 126.827 29.462 125.819 30.596C124.811 31.712 123.434 32.27 121.688 32.27C119.924 32.27 118.61 31.667 117.746 30.461V36.455C117.746 36.653 117.683 36.815 117.557 36.941C117.431 37.067 117.269 37.13 117.071 37.13H113.777ZM120.23 28.652C121.076 28.652 121.679 28.4 122.039 27.896C122.417 27.392 122.633 26.699 122.687 25.817C122.723 25.457 122.741 25.178 122.741 24.98C122.741 24.782 122.723 24.503 122.687 24.143C122.633 23.261 122.417 22.568 122.039 22.064C121.679 21.56 121.076 21.308 120.23 21.308C119.402 21.308 118.79 21.569 118.394 22.091C118.016 22.595 117.8 23.252 117.746 24.062L117.719 25.061L117.746 26.087C117.782 26.825 118.007 27.437 118.421 27.923C118.835 28.409 119.438 28.652 120.23 28.652ZM137.238 32C133.512 32 131.649 30.227 131.649 26.681V21.497H129.543C129.345 21.497 129.174 21.434 129.03 21.308C128.904 21.182 128.841 21.02 128.841 20.822V18.635C128.841 18.437 128.904 18.275 129.03 18.149C129.174 18.023 129.345 17.96 129.543 17.96H131.649V13.505C131.649 13.307 131.712 13.145 131.838 13.019C131.982 12.893 132.144 12.83 132.324 12.83H135.456C135.654 12.83 135.816 12.893 135.942 13.019C136.068 13.145 136.131 13.307 136.131 13.505V17.96H139.506C139.704 17.96 139.866 18.023 139.992 18.149C140.136 18.275 140.208 18.437 140.208 18.635V20.822C140.208 21.02 140.136 21.182 139.992 21.308C139.866 21.434 139.704 21.497 139.506 21.497H136.131V26.303C136.131 27.635 136.644 28.301 137.67 28.301H139.749C139.947 28.301 140.109 28.364 140.235 28.49C140.361 28.616 140.424 28.778 140.424 28.976V31.325C140.424 31.505 140.361 31.667 140.235 31.811C140.109 31.937 139.947 32 139.749 32H137.238ZM143.307 15.935C143.109 15.935 142.947 15.872 142.821 15.746C142.695 15.62 142.632 15.458 142.632 15.26V12.83C142.632 12.632 142.695 12.47 142.821 12.344C142.947 12.218 143.109 12.155 143.307 12.155H146.547C146.745 12.155 146.907 12.218 147.033 12.344C147.159 12.47 147.222 12.632 147.222 12.83V15.26C147.222 15.458 147.159 15.62 147.033 15.746C146.907 15.872 146.745 15.935 146.547 15.935H143.307ZM143.334 32C143.136 32 142.974 31.937 142.848 31.811C142.722 31.685 142.659 31.523 142.659 31.325V18.635C142.659 18.437 142.722 18.275 142.848 18.149C142.974 18.023 143.136 17.96 143.334 17.96H146.52C146.718 17.96 146.88 18.023 147.006 18.149C147.132 18.275 147.195 18.437 147.195 18.635V31.325C147.195 31.505 147.132 31.667 147.006 31.811C146.88 31.937 146.718 32 146.52 32H143.334Z" fill="#423E44"/>
<circle cx="14" cy="22" r="14" fill="#654890"/>
<circle cx="38" cy="30" r="7" fill="#EF6B64"/>
</svg>
